# AST/ASF file generated using VICON BodyLanguage
# -----------------------------------------------
:version 1.10
:name VICON
:units
  mass 1.0
  length 0.45
  angle deg
:documentation
   .ast/.asf automatically generated from VICON data using
   VICON BodyBuilder and BodyLanguage model FoxedUp or BRILLIANT.MOD
:root
   order TX TY TZ RX RY RZ
   axis XYZ
   position 0 0 0  
   orientation 0 0 0 
:bonedata
  begin
     id 1 
     name lhipjoint
     direction 0.62366 -0.717238 0.310833 
     length 2.53602 
     axis 0 0 0  XYZ
  end
  begin
     id 2 
     name lfemur
     direction 0.34202 -0.939693 0  
     length 7.40817  
     axis 0 0 20  XYZ
    dof rx ry rz
    limits (-160.0 20.0)
           (-70.0 70.0)
           (-60.0 70.0)
  end
  begin
     id 3 
     name ltibia
     direction 0.34202 -0.939693 0   
     length 7.7045   
     axis 0 0 20   XYZ
    dof rx
    limits (-10.0 170.0)
  end
  begin
     id 4 
     name lfoot
     direction 0.0673888 -0.185149 0.980397   
     length 2.09456   
     axis -90 7.62852e-016 20   XYZ
    dof rx rz
    limits (-45.0 90.0)
           (-70.0 20.0)
  end
  begin
     id 5 
     name ltoes
     direction 1.53575e-011 -4.21994e-011 1   
     length 1.05543   
     axis -90 7.62852e-016 20   XYZ
    dof rx
    limits (-90.0 20.0)
  end
  begin
     id 6 
     name rhipjoint
     direction -0.489018 -0.800347 0.346851   
     length 2.27268  
     axis 0 0 0  XYZ 
  end
  begin
     id 7 
     name rfemur
     direction -0.34202 -0.939693 0   
     length 7.55487   
     axis 0 0 -20   XYZ
    dof rx ry rz
    limits (-160.0 20.0)
           (-70.0 70.0)
           (-70.0 60.0)
  end
  begin
     id 8 
     name rtibia
     direction -0.34202 -0.939693 0   
     length 7.78969   
     axis 0 0 -20   XYZ
    dof rx
    limits (-10.0 170.0)
 end
 begin
     id 9 
     name rfoot
     direction -0.0859318 -0.236096 0.967923   
     length 2.19143  
     axis -90 -7.62852e-016 -20   XYZ
    dof rx rz
    limits (-45.0 90.0)
           (-20.0 70.0)
  end
  begin
     id 10 
     name rtoes
     direction -1.53538e-011 -4.21989e-011 1   
     length 1.09845   
     axis -90 -7.62852e-016 -20   XYZ
    dof rx
    limits (-90.0 20.0)
  end
  begin
     id 11 
     name lowerback
     direction -0.00762546 0.998978 -0.0445553   
     length 1.98161   
     axis 0 0 0   XYZ
    dof rx ry rz
    limits (-20.0 45.0)
           (-30.0 30.0)
           (-30.0 30.0)
  end
  begin
     id 12 
     name upperback
     direction 0.0422361 0.998867 -0.0219156   
     length 1.97558   
     axis 0 0 0   XYZ
    dof rx ry rz
    limits (-20.0 45.0)
           (-30.0 30.0)
           (-30.0 30.0)
  end
  begin
     id 13 
     name thorax
     direction 0.0442465 0.999021 7.47603e-005   
     length 1.97799   
     axis 0 0 0   XYZ
    dof rx ry rz
    limits (-20.0 45.0)
           (-30.0 30.0)
           (-30.0 30.0)
  end
  begin
     id 14 
     name lowerneck
     direction 0.00312169 0.984641 0.174564   
     length 1.78995   
     axis 0 0 0   XYZ
    dof rx ry rz
    limits (-20.0 45.0)
           (-30.0 30.0)
           (-30.0 30.0)
  end
  begin
     id 15 
     name upperneck
     direction -0.0383028 0.985255 -0.166749   
     length 1.83053   
     axis 0 0 0   XYZ
    dof rx ry rz
    limits (-20.0 45.0)
           (-30.0 30.0)
           (-30.0 30.0)
  end
  begin
     id 16
     name head
     direction -0.0129546 0.997059 -0.0755386  
     length 1.84088  
     axis 0 0 0   XYZ
    dof rx ry rz
    limits (-20.0 45.0)
           (-30.0 30.0)
           (-30.0 30.0)
  end
  begin
     id 17 
     name lclavicle
     direction 0.912857 0.370519 -0.171488  
     length 3.51279  
     axis 0 0 0   XYZ
    dof ry rz
    limits (-20.0 10.0)
           (0.0 20.0)
  end
  begin
     id 18 
     name lhumerus
     direction 1 -4.48962e-011 3.64361e-027   
     length 4.95663   
     axis 180 -30 -90   XYZ
    dof rx ry rz
    limits (-60.0 90.0)
           (-90.0 90.0)
           (-90.0 90.0)
  end
  begin
     id 19
     name lradius
     direction 1 -4.48974e-011 5.97202e-027   
     length 3.38177   
     axis 180 -30 -90   XYZ
    dof rx
    limits (-10.0 170.0)
  end
  begin
     id 20
     name lwrist
     direction 1 -4.4896e-011 9.83288e-027   
     length 1.69088   
     axis -9.31221e-015 90 90   XYZ
    dof ry
    limits (-180.0 0.0)
 end
  begin
     id 21 
     name lhand
     direction 1 -4.4902e-011 1.96551e-026   
     length 0.662909   
     axis -1.25475e-014 90 90   XYZ
    dof rx rz
    limits (-90.0 90.0)
           (-45.0 45.0)
  end
  begin
     id 22 
     name lfingers
     direction 1 -4.48971e-011 3.93277e-026   
     length 0.534454   
     axis -2.50945e-014 90 90   XYZ
    dof rx
    limits (0.0 90.0)
  end
  begin
     id 23
     name lthumb
     direction 0.707107 -6.34933e-011 0.707107   
     length 0.767373   
     axis -90 45 -4.80359e-014   XYZ
    dof rx rz
    limits (-45.0 45.0)
           (-45.0 45.0)
  end
  begin
     id 24 
     name rclavicle
     direction -0.900919 0.395364 -0.178976   
     length 3.40627  
     axis 0 0 0   XYZ 
    dof ry rz
    limits (-10.0 20.0)
           (-20.0 0.0)
  end
  begin
     id 25 
     name rhumerus
     direction -1 -4.48969e-011 1.03875e-027  
     length 5.08365   
     axis 180 30 90   XYZ
    dof rx ry rz
    limits (-90.0 60.0)
           (-90.0 90.0)
           (-90.0 90.0)
  end
  begin
     id 26 
     name rradius
     direction -1 -4.48951e-011 5.02733e-027   
     length 3.35984   
     axis 180 30 90   XYZ
    dof rx
    limits (-10.0 170.0)
  end
  begin
     id 27 
     name rwrist
     direction -1 -4.49011e-011 9.82828e-027   
     length 1.67992   
     axis -9.31221e-015 -90 -90   XYZ
    dof ry
    limits (-180.0 0.0)
  end
  begin
     id 28
     name rhand
     direction -1 -4.48894e-011 1.96774e-026   
     length 0.820764   
     axis -1.25475e-014 -90 -90   XYZ
    dof rx rz
    limits (-90.0 90.0)
           (-45.0 45.0)
  end
  begin
     id 29
     name rfingers
     direction -1 -4.49095e-011 3.92833e-026   
     length 0.661721   
     axis -2.50945e-014 -90 -90   XYZ
    dof rx
    limits (0.0 90.0)
  end
  begin
     id 30
     name rthumb
     direction -0.707107 -6.34881e-011 0.707107   
     length 0.950103   
     axis -90 -45 4.80359e-014   XYZ
    dof rx rz
    limits (-45.0 45.0)
           (-45.0 45.0)
  end
:hierarchy
  begin
    root lhipjoint rhipjoint lowerback
    lhipjoint lfemur
    lfemur ltibia
    ltibia lfoot
    lfoot ltoes
    rhipjoint rfemur
    rfemur rtibia
    rtibia rfoot
    rfoot rtoes
    lowerback upperback
    upperback thorax
    thorax lowerneck lclavicle rclavicle
    lowerneck upperneck
    upperneck head
    lclavicle lhumerus
    lhumerus lradius
    lradius lwrist
    lwrist lhand lthumb
    lhand lfingers
    rclavicle rhumerus
    rhumerus rradius
    rradius rwrist
    rwrist rhand rthumb
    rhand rfingers
  end

#!OML:ASF I:\golf\golf\golf 2\Subject 1\2002-09-07\Subject1.ASF
:FULLY-SPECIFIED
:DEGREES
135
root 0.723184 17.9604 -5.49939 9.93254 -6.83503 -6.05043
lowerback -7.2836 0.755068 -1.76159
upperback -0.267839 1.01567 3.46853
thorax 3.71664 0.445551 4.70681
lowerneck -14.7997 3.58797 2.89648
upperneck 42.2737 9.15941 -10.0325
head 19.6104 2.73796 -3.60764
rclavicle -2.11581e-014 -3.60794e-014
rhumerus -28.8081 0.59479 -85.9721
rradius 27.377
rwrist -9.31051
rhand -20.4486 13.0489
rfingers 7.12502
rthumb 5.90675 -16.8488
lclavicle -2.11581e-014 -3.60794e-014
lhumerus -26.992 -4.31694 90.5987
lradius 24.8332
lwrist 2.64597
lhand -10.1819 33.0465
lfingers 7.12502
lthumb 15.8084 62.4211
rfemur -16.0055 3.83751 19.78
rtibia 26.7869
rfoot -13.5462 -7.09782
rtoes -11.3885
lfemur -16.1964 2.47032 -13.8484
ltibia 31.302
lfoot -18.0887 9.67083
ltoes -12.0982
136
root 0.733281 17.9614 -5.49888 9.92619 -6.86057 -6.15074
lowerback -7.29166 0.833355 -1.66524
upperback -0.184959 1.11226 3.42755
thorax 3.80082 0.492938 4.62048
lowerneck -14.6603 3.53925 2.90464
upperneck 42.3401 9.08808 -10.035
head 19.6048 2.71502 -3.63092
rclavicle -8.56638e-015 -2.78299e-015
rhumerus -28.8456 0.686441 -86.0599
rradius 27.54
rwrist -9.38527
rhand -20.4394 12.9177
rfingers 7.12502
rthumb 5.91563 -16.9797
lclavicle -8.56638e-015 -2.78299e-015
lhumerus -26.8613 -4.53537 90.55
lradius 24.852
lwrist 2.7076
lhand -10.043 32.9721
lfingers 7.12502
lthumb 15.9423 62.336
rfemur -15.9571 3.83517 19.8489
rtibia 26.7222
rfoot -13.5439 -6.99944
rtoes -10.782
lfemur -16.1851 2.48245 -13.77
ltibia 31.3366
lfoot -18.1203 9.68435
ltoes -12.1781
137
root 0.74307 17.9617 -5.49933 9.96653 -6.89503 -6.15822
lowerback -7.18648 0.901093 -1.66656
upperback -0.221415 1.20605 3.36681
thorax 3.69642 0.542722 4.563
lowerneck -14.5035 3.50532 2.90419
upperneck 42.5074 9.05102 -10.021
head 19.6646 2.70524 -3.64538
rclavicle -3.09359e-015 3.3197e-014
rhumerus -29.0137 0.7083 -86.1083
rradius 27.6768
rwrist -9.39349
rhand -20.4049 12.7862
rfingers 7.12502
rthumb 5.94887 -17.1103
lclavicle -3.09359e-015 3.3197e-014
lhumerus -26.9707 -4.69865 90.5265
lradius 25.0029
lwrist 2.66621
lhand -9.9396 32.9229
lfingers 7.12502
lthumb 16.0418 62.2788
rfemur -15.9834 3.79013 19.808
rtibia 26.6616
rfoot -13.5338 -6.87709
rtoes -10.5463
lfemur -16.2255 2.4233 -13.789
ltibia 31.37
lfoot -18.1934 9.68181
ltoes -11.8717
138
root 0.752321 17.9617 -5.50393 10.0427 -6.82845 -6.24871
lowerback -7.0423 0.903022 -1.62097
upperback -0.27961 1.20521 3.38988
thorax 3.55556 0.546391 4.55586
lowerneck -14.2756 3.52211 2.85941
upperneck 42.5665 9.12124 -10.0661
head 19.6496 2.72638 -3.6515
rclavicle 1.28527e-014 -1.93815e-014
rhumerus -29.1066 0.821365 -86.1068
rradius 27.6763
rwrist -9.32889
rhand -20.4383 12.8066
rfingers 7.12502
rthumb 5.91668 -17.0908
lclavicle 1.28527e-014 -1.93815e-014
lhumerus -27.0776 -4.51476 90.5175
lradius 25.0763
lwrist 2.59066
lhand -10.0971 32.8568
lfingers 7.12502
lthumb 15.8902 62.2248
rfemur -16.0528 3.75922 19.8759
rtibia 26.6217
rfoot -13.4761 -6.90548
rtoes -10.7204
lfemur -16.3365 2.40028 -13.7027
ltibia 31.3923
lfoot -18.2928 9.57945
ltoes -11.5903
139
root 0.75996 17.9623 -5.50857 10.0668 -6.68644 -6.24747
lowerback -6.84873 0.854376 -1.67693
upperback -0.322545 1.1463 3.3734
thorax 3.40693 0.519684 4.55854
lowerneck -14.059 3.56045 2.86205
upperneck 42.6038 9.19142 -10.0819
head 19.6226 2.7586 -3.64988
rclavicle 5.74612e-015 3.30976e-014
rhumerus -29.1488 0.95925 -86.1827
rradius 27.636
rwrist -9.29633
rhand -20.4164 12.752
rfingers 7.12502
rthumb 5.93785 -17.1448
lclavicle 5.74612e-015 3.30976e-014
lhumerus -27.1384 -4.32942 90.4504
lradius 25.1174
lwrist 2.55544
lhand -10.2686 32.8095
lfingers 7.12502
lthumb 15.725 62.1906
rfemur -16.0702 3.6987 19.8686
rtibia 26.5955
rfoot -13.3925 -7.00659
rtoes -10.413
lfemur -16.4379 2.50191 -13.7057
ltibia 31.4069
lfoot -18.3337 9.3271
ltoes -11.5167
140
root 0.767645 17.9637 -5.51149 10.0892 -6.58421 -6.19714
lowerback -6.70002 0.835494 -1.7317
upperback -0.307874 1.12828 3.28462
thorax 3.34103 0.511583 4.49117
lowerneck -14.0293 3.59034 2.89959
upperneck 42.6963 9.21948 -10.0367
head 19.6774 2.78089 -3.63577
rclavicle -2.15417e-014 -9.6659e-015
rhumerus -29.0959 1.03307 -86.3253
rradius 27.5938
rwrist -9.30987
rhand -20.3353 12.6916
rfingers 7.12502
rthumb 6.01615 -17.2029
lclavicle -2.15417e-014 -9.6659e-015
lhumerus -27.0676 -4.48602 90.3706
lradius 25.211
lwrist 2.71256
lhand -10.2427 32.9642
lfingers 7.12502
lthumb 15.7499 62.3433
rfemur -16.0933 3.66809 19.7972
rtibia 26.5763
rfoot -13.3521 -7.08621
rtoes -10.23
lfemur -16.528 2.57828 -13.7617
ltibia 31.4167
lfoot -18.2918 9.09853
ltoes -11.3161
141
root 0.775525 17.965 -5.51367 10.1607 -6.51049 -6.23198
lowerback -6.73536 0.832174 -1.73889
upperback -0.209856 1.12366 3.26103
thorax 3.4633 0.505689 4.47297
lowerneck -14.0519 3.59878 2.85046
upperneck 42.7009 9.24492 -10.0205
head 19.6859 2.78399 -3.61323
rclavicle -1.83262e-014 -2.58172e-014
rhumerus -28.9418 1.15525 -86.3867
rradius 27.5522
rwrist -9.38386
rhand -20.2885 12.8574
rfingers 7.12502
rthumb 6.06125 -17.0359
lclavicle -1.83262e-014 -2.58172e-014
lhumerus -26.8555 -4.49297 90.3104
lradius 25.3493
lwrist 2.75381
lhand -10.01 33.282
lfingers 7.12502
lthumb 15.974 62.6434
rfemur -16.1682 3.64349 19.8081
rtibia 26.5708
rfoot -13.3832 -7.10056
rtoes -10.1194
lfemur -16.6367 2.62188 -13.74
ltibia 31.4201
lfoot -18.2874 8.98344
ltoes -11.1697
142
root 0.783231 17.966 -5.5153 10.2145 -6.48063 -6.23765
lowerback -6.83996 0.827728 -1.86915
upperback -0.0679585 1.12449 3.29713
thorax 3.66624 0.497687 4.59079
lowerneck -14.0483 3.61867 2.75297
upperneck 42.6505 9.31209 -10.0362
head 19.656 2.79359 -3.58504
rclavicle 2.71776e-015 2.58482e-014
rhumerus -28.7603 1.27602 -86.3262
rradius 27.5329
rwrist -9.44418
rhand -20.3242 13.1074
rfingers 7.12502
rthumb 6.02685 -16.7869
lclavicle 2.71776e-015 2.58482e-014
lhumerus -26.6176 -4.19424 90.2703
lradius 25.4514
lwrist 2.50286
lhand -9.89805 33.2308
lfingers 7.12502
lthumb 16.0818 62.5835
rfemur -16.2282 3.60583 19.7859
rtibia 26.5582
rfoot -13.3941 -7.04903
rtoes -9.74713
lfemur -16.7264 2.67836 -13.7648
ltibia 31.4389
lfoot -18.3142 8.92058
ltoes -11.2742
143
root 0.793248 17.9672 -5.51936 10.307 -6.51134 -6.20822
lowerback -6.88681 0.851878 -2.01223
upperback 0.0269926 1.16641 3.31075
thorax 3.7844 0.512088 4.69392
lowerneck -14.0703 3.62182 2.67901
upperneck 42.6288 9.36865 -10.0945
head 19.6582 2.79649 -3.58754
rclavicle 1.07002e-015 1.24365e-014
rhumerus -28.5958 1.35835 -86.2366
rradius 27.5119
rwrist -9.46106
rhand -20.3613 13.0828
rfingers 7.12502
rthumb 5.99097 -16.8125
lclavicle 1.07002e-015 1.24365e-014
lhumerus -26.4386 -4.10706 90.2905
lradius 25.482
lwrist 2.48476
lhand -10.0293 32.879
lfingers 7.12502
lthumb 15.9554 62.2418
rfemur -16.3563 3.55684 19.7087
rtibia 26.5341
rfoot -13.3222 -6.98299
rtoes -9.94835
lfemur -16.8802 2.67543 -13.8421
ltibia 31.4882
lfoot -18.3096 8.93718
ltoes -11.443
144
root 0.804831 17.9672 -5.52293 10.3717 -6.47086 -6.22466
lowerback -6.76978 0.896314 -1.99944
upperback 0.0355713 1.22641 3.25431
thorax 3.72318 0.543914 4.62993
lowerneck -14.0525 3.58034 2.68128
upperneck 42.6397 9.31612 -10.1194
head 19.6561 2.77402 -3.61232
rclavicle -2.80248e-014 -1.6201e-014
rhumerus -28.5714 1.30284 -86.2392
rradius 27.4744
rwrist -9.42787
rhand -20.4454 12.8845
rfingers 7.12502
rthumb 5.90981 -17.0131
lclavicle -2.80248e-014 -1.6201e-014
lhumerus -26.4156 -4.31975 90.288
lradius 25.5086
lwrist 2.86835
lhand -10.2953 32.6242
lfingers 7.12502
lthumb 15.6992 62.0073
rfemur -16.4382 3.47165 19.6965
rtibia 26.5205
rfoot -13.225 -7.0026
rtoes -10.5682
lfemur -17.0179 2.69709 -13.868
ltibia 31.5527
lfoot -18.3251 8.90338
ltoes -11.5044
145
root 0.814586 17.9655 -5.52406 10.3575 -6.31306 -6.34739
lowerback -6.49962 0.942482 -1.79126
upperback -0.00191234 1.27596 3.1388
thorax 3.53455 0.57764 4.38638
lowerneck -13.9447 3.5618 2.80011
upperneck 42.7115 9.2003 -9.99669
head 19.6492 2.76642 -3.60133
rclavicle -5.51627e-015 1.2424e-014
rhumerus -28.6666 1.01548 -86.3515
rradius 27.4131
rwrist -9.31295
rhand -20.5589 12.7681
rfingers 7.12502
rthumb 5.80027 -17.1325
lclavicle -5.51627e-015 1.2424e-014
lhumerus -26.5154 -4.55096 90.1425
lradius 25.5912
lwrist 3.17317
lhand -10.4436 32.5893
lfingers 7.12502
lthumb 15.5565 61.9836
rfemur -16.3944 3.44208 19.8302
rtibia 26.535
rfoot -13.2291 -7.12874
rtoes -10.6122
lfemur -17.0601 2.73588 -13.7473
ltibia 31.6068
lfoot -18.3865 8.78067
ltoes -11.3836
146
root 0.82306 17.964 -5.52608 10.4181 -6.18191 -6.40353
lowerback -6.35697 0.961768 -1.68191
upperback -0.0148377 1.2975 3.02657
thorax 3.44389 0.593045 4.20433
lowerneck -13.8602 3.55525 2.85461
upperneck 42.7643 9.1116 -9.84982
head 19.6338 2.76085 -3.55885
rclavicle -3.06874e-014 1.39149e-015
rhumerus -28.671 0.824965 -86.436
rradius 27.3167
rwrist -9.20338
rhand -20.5588 12.6724
rfingers 7.12502
rthumb 5.80031 -17.2282
lclavicle -3.06874e-014 1.39149e-015
lhumerus -26.51 -4.59303 89.9363
lradius 25.7283
lwrist 2.9058
lhand -9.90542 33.0955
lfingers 7.12502
lthumb 16.0747 62.4487
rfemur -16.4731 3.42715 19.873
rtibia 26.586
rfoot -13.2628 -7.23082
rtoes -10.6212
lfemur -17.1874 2.75186 -13.7206
ltibia 31.6311
lfoot -18.3733 8.76443
ltoes -11.3042
147
root 0.831237 17.9647 -5.52867 10.516 -6.14257 -6.23673
lowerback -6.40029 0.943446 -1.93056
upperback 0.0320712 1.29372 2.9565
thorax 3.5134 0.585596 4.27403
lowerneck -13.8458 3.55412 2.7512
upperneck 42.777 9.11866 -9.78464
head 19.6254 2.75462 -3.50577
rclavicle 1.54928e-014 4.16454e-014
rhumerus -28.5753 0.86184 -86.4188
rradius 27.2122
rwrist -9.06585
rhand -20.5679 12.6717
rfingers 7.12502
rthumb 5.79154 -17.2291
lclavicle 1.54928e-014 4.16454e-014
lhumerus -26.3633 -4.37407 89.8191
lradius 25.6899
lwrist 2.52001
lhand -9.5858 33.1788
lfingers 7.12502
lthumb 16.3825 62.5069
rfemur -16.6496 3.36739 19.6647
rtibia 26.663
rfoot -13.2246 -7.3207
rtoes -11.2398
lfemur -17.3394 2.70128 -13.9535
ltibia 31.6231
lfoot -18.3569 8.81957
ltoes -11.1908
148
root 0.841063 17.9655 -5.53269 10.5991 -6.11944 -6.07311
lowerback -6.42883 0.92286 -2.24016
upperback 0.0757259 1.28973 2.9457
thorax 3.56878 0.576571 4.43999
lowerneck -13.8022 3.57038 2.6076
upperneck 42.8203 9.18671 -9.75132
head 19.6387 2.7626 -3.45157
rclavicle 3.61664e-014 1.87852e-014
rhumerus -28.4786 1.01264 -86.3516
rradius 27.1033
rwrist -9.0238
rhand -20.6529 12.8269
rfingers 7.12502
rthumb 5.70945 -17.0762
lclavicle 3.61664e-014 1.87852e-014
lhumerus -26.2602 -4.06195 89.8008
lradius 25.5396
lwrist 2.46724
lhand -9.98335 32.5857
lfingers 7.12502
lthumb 15.9997 61.945
rfemur -16.8191 3.33685 19.4529
rtibia 26.7555
rfoot -13.2066 -7.37406
rtoes -11.5465
lfemur -17.4457 2.56064 -14.1615
ltibia 31.6021
lfoot -18.4395 8.84537
ltoes -11.0647
149
root 0.852685 17.9661 -5.53663 10.6476 -6.05688 -6.06874
lowerback -6.36631 0.944708 -2.34655
upperback 0.128245 1.32579 2.94752
thorax 3.58247 0.591581 4.50495
lowerneck -13.7317 3.53975 2.56475
upperneck 42.8364 9.15355 -9.74831
head 19.6215 2.7456 -3.45017
rclavicle 9.90196e-015 -2.0773e-014
rhumerus -28.3596 1.12812 -86.2824
rradius 27.016
rwrist -9.14625
rhand -20.654 12.8158
rfingers 7.12502
rthumb 5.70838 -17.0873
lclavicle 9.90196e-015 -2.0773e-014
lhumerus -26.1417 -3.94966 89.7848
lradius 25.592
lwrist 2.31571
lhand -9.6951 32.8502
lfingers 7.12502
lthumb 16.2772 62.1869
rfemur -16.9286 3.31432 19.4031
rtibia 26.8463
rfoot -13.2043 -7.36618
rtoes -11.3275
lfemur -17.5417 2.56008 -14.2025
ltibia 31.5941
lfoot -18.4072 8.78927
ltoes -11.2963
